<svg width="203" height="48" viewBox="0 0 203 48" fill="none" xmlns="http://www.w3.org/2000/svg">
<g clip-path="url(#clip0_465_22855)">
<path d="M19.1327 4.86279H21.5121C21.5872 4.87924 21.6638 4.88708 21.7406 4.88616C22.0029 4.89075 22.265 4.89375 22.5271 4.90054C22.7508 4.90653 22.9745 4.91671 23.198 4.9251C23.2939 4.9289 23.3899 4.93269 23.4855 4.93728L24.5012 4.98681C24.5202 4.98681 24.5394 4.98961 24.5586 4.99101C24.8327 5.01098 25.1069 5.03095 25.3811 5.05092C25.617 5.06769 25.8529 5.0844 26.0888 5.10105C26.1144 5.10284 26.1396 5.10704 26.1651 5.10943L26.8145 5.16935C26.999 5.18632 27.1837 5.2023 27.3682 5.22127C27.5396 5.23905 27.7109 5.26121 27.8824 5.27999C28.1555 5.31014 28.4288 5.3387 28.7027 5.36946C28.8228 5.38304 28.9428 5.39981 29.0641 5.41579C29.2097 5.43576 29.3552 5.45573 29.5008 5.4757C29.7287 5.50626 29.957 5.53561 30.1847 5.56757C30.3998 5.59832 30.6141 5.63327 30.8288 5.66583C31.0309 5.69658 31.2334 5.72454 31.435 5.75769C31.6998 5.80123 31.9639 5.84816 32.2282 5.89429C32.5483 5.95041 32.8702 6.00413 33.1904 6.06444C33.5479 6.13215 33.9041 6.20704 34.2612 6.27714C34.8253 6.38758 35.3863 6.51179 35.9463 6.64001C36.6618 6.80364 37.3744 6.97931 38.0842 7.16704C38.3497 7.23694 38.6156 7.30684 38.8779 7.38552C39.5116 7.57804 39.9584 8.07852 40.0784 8.72697C40.111 8.90252 40.1373 9.07946 40.1621 9.2564C40.2071 9.57853 40.2489 9.90126 40.2917 10.2238C40.3356 10.5529 40.3717 10.8828 40.4 11.2134C40.417 11.4105 40.4368 11.6074 40.4516 11.8047C40.4746 12.1101 40.5024 12.4152 40.5084 12.7218C40.5136 12.9962 40.5176 13.2708 40.5226 13.5452C40.5236 13.6027 40.518 13.6622 40.5316 13.7169C40.5504 13.7928 40.5476 13.8679 40.549 13.944V15.2465C40.5532 15.3406 40.5348 15.4334 40.5304 15.5261C40.5204 15.7388 40.5234 15.9523 40.521 16.1652C40.5176 16.2353 40.5106 16.305 40.511 16.3752C40.5126 16.6948 40.479 17.0127 40.4598 17.3313C40.4464 17.5541 40.4218 17.7764 40.3998 17.9987C40.3704 18.2971 40.3429 18.596 40.3065 18.8936C40.2665 19.2229 40.2163 19.551 40.1715 19.8798C40.1136 20.3035 40.041 20.7249 39.9626 21.1449C39.8441 21.7784 39.7093 22.4084 39.558 23.035C39.2201 24.4304 38.7997 25.8046 38.2991 27.1504C37.3216 29.7803 36.0682 32.2724 34.5389 34.6267C32.9205 37.1311 31.0405 39.4239 28.926 41.5261C26.8261 43.6138 24.5437 45.4789 22.0788 47.1213C21.7974 47.3097 21.5131 47.4936 21.2292 47.6779C21.0373 47.8059 20.8206 47.8921 20.5931 47.9309C20.5427 47.9397 20.4929 47.9517 20.4441 47.9669C20.4274 47.975 20.4122 47.986 20.3993 47.9992H20.169C20.1613 47.9891 20.1517 47.9806 20.1407 47.9742C20.1297 47.9678 20.1176 47.9636 20.1049 47.9619C20.0175 47.9431 19.9295 47.9268 19.843 47.9046C19.6519 47.8526 19.4705 47.7702 19.3056 47.6605C18.5041 47.1469 17.7187 46.6097 16.9494 46.0491C14.4952 44.2585 12.2331 42.2534 10.1846 40.0097C8.30105 37.9467 6.63756 35.7205 5.21377 33.3172C3.98479 31.2474 2.95446 29.0663 2.13649 26.8031C1.66518 25.4948 1.26924 24.1607 0.950597 22.8073C0.821744 22.2614 0.706367 21.7122 0.604458 21.1597C0.525825 20.7333 0.453793 20.3055 0.391767 19.8762C0.337945 19.5037 0.284725 19.1312 0.244308 18.7578C0.229302 18.618 0.212894 18.4782 0.198288 18.3384C0.17828 18.1417 0.15547 17.9452 0.138263 17.7481C0.118255 17.5064 0.102646 17.2644 0.0852383 17.0227C0.0510241 16.5516 0.025215 16.0801 0.0168115 15.6078C0.0152108 15.5057 0.0136088 15.4035 0.0104075 15.3014C0.00940706 15.2699 0.0032082 15.2385 -0.000793457 15.2069C0.00160754 15.1498 0.00560568 15.0925 0.00560568 15.0354C0.00560568 14.8119 0.000807207 14.5886 0.00420862 14.3654C0.0106113 13.944 0.0140111 13.5224 0.0326188 13.1016C0.0544279 12.6105 0.0788372 12.1194 0.126857 11.6301C0.159271 11.2998 0.186884 10.9691 0.219298 10.6386C0.231503 10.5116 0.247309 10.385 0.263916 10.2591C0.295529 10.0195 0.32714 9.77824 0.361955 9.53839C0.401971 9.26679 0.439186 8.99498 0.486205 8.72478C0.529919 8.47224 0.631164 8.23309 0.782129 8.02579C1.02343 7.69168 1.34656 7.47419 1.74133 7.36455C2.09187 7.2671 2.44442 7.17683 2.79656 7.08496C3.45123 6.91414 4.10878 6.75438 4.76918 6.60566C5.21137 6.50594 5.65448 6.41028 6.09853 6.31868C6.5049 6.2344 6.91267 6.15611 7.32024 6.07743C7.63377 6.01751 7.9475 5.9576 8.26223 5.90288C8.60237 5.84417 8.94252 5.79064 9.28266 5.73672C9.66121 5.67681 10.0398 5.6155 10.4191 5.56078C10.7479 5.51325 11.078 5.4741 11.4075 5.43137L11.7687 5.38483C11.921 5.36486 12.073 5.34489 12.2253 5.32732C12.3839 5.30914 12.5432 5.29476 12.7021 5.27799C12.8421 5.26341 12.9822 5.24763 13.1222 5.23266C13.3067 5.21268 13.4908 5.19151 13.6753 5.17434C13.879 5.15537 14.0832 5.14279 14.2869 5.12321C14.5989 5.09326 14.911 5.0661 15.2239 5.04932C15.2557 5.04752 15.2875 5.04393 15.3196 5.04173C15.5997 5.02176 15.8798 4.9986 16.1615 4.98322C16.5319 4.96325 16.9018 4.94827 17.273 4.93109C17.3112 4.9293 17.3496 4.9261 17.3878 4.9245C17.5795 4.91672 17.7712 4.90733 17.9631 4.90253C18.1739 4.89714 18.3852 4.89674 18.5961 4.89275C18.7758 4.88836 18.9549 4.88596 19.1327 4.86279ZM20.2988 8.2978C19.7406 8.30379 19.197 8.30878 18.6533 8.31557C18.5133 8.31737 18.372 8.32256 18.2316 8.32855C17.7843 8.34706 17.3371 8.36623 16.8898 8.38607H16.8698C16.563 8.40244 16.2562 8.41895 15.9494 8.4356C15.924 8.43699 15.8986 8.44039 15.873 8.44239C15.6117 8.46196 15.3503 8.4816 15.0889 8.5013C14.8722 8.51788 14.6555 8.53405 14.4388 8.55203C14.2923 8.56401 14.1459 8.57799 13.9996 8.59197C13.8153 8.61054 13.6311 8.63191 13.4468 8.65068C13.2751 8.66826 13.103 8.68304 12.9316 8.70121C12.7981 8.71539 12.6649 8.73256 12.5314 8.74894C12.3729 8.76891 12.2145 8.78888 12.0558 8.80746C11.9157 8.82463 11.7757 8.83961 11.6372 8.85858C11.4029 8.89053 11.169 8.92508 10.9351 8.95844C10.7201 8.98899 10.5046 9.01655 10.2899 9.0497C10.0058 9.09364 9.72244 9.14157 9.43872 9.1883C9.18042 9.23104 8.9215 9.27098 8.664 9.31791C8.28704 9.38661 7.91062 9.45804 7.53473 9.5322C7.07114 9.62387 6.60735 9.71434 6.14576 9.81579C5.60333 9.93561 5.0631 10.0636 4.52248 10.1908C4.29258 10.2448 4.06409 10.3049 3.8356 10.3638C3.72335 10.3927 3.71355 10.3814 3.69994 10.511C3.67393 10.7584 3.64151 11.0053 3.6173 11.2529C3.58169 11.615 3.54408 11.977 3.51987 12.3399C3.49606 12.6964 3.46925 13.0531 3.46524 13.4108C3.46404 13.5256 3.45624 13.6404 3.45244 13.7553C3.43383 14.3107 3.43143 14.866 3.45244 15.4212C3.46784 15.8358 3.47244 16.2508 3.50766 16.6648C3.52767 16.9063 3.53807 17.1489 3.56028 17.3904C3.5887 17.7017 3.62491 18.0125 3.65752 18.3234C3.69754 18.7043 3.75216 19.0823 3.80878 19.4618C3.89462 20.0361 3.99867 20.6071 4.11551 21.1759C4.3403 22.263 4.62079 23.3379 4.95586 24.3964C5.72498 26.8346 6.76561 29.1527 8.05315 31.3608C9.45813 33.7709 11.1268 35.9853 13.0304 38.0248C14.1258 39.1969 15.2891 40.3039 16.5145 41.3399C17.6658 42.3138 18.8673 43.227 20.1139 44.076C20.1562 44.1047 20.1982 44.1339 20.2418 44.1604C20.2526 44.1676 20.2652 44.1715 20.2782 44.1718C20.2911 44.1721 20.3039 44.1687 20.315 44.162C20.3637 44.1317 20.4113 44.0993 20.4587 44.067C22.3781 42.7618 24.1875 41.3023 25.8687 39.7029C27.6831 37.9748 29.3246 36.097 30.773 34.0523C32.5577 31.5332 34.0017 28.8337 35.0766 25.9393C35.55 24.6653 35.9434 23.3631 36.2544 22.0402C36.3745 21.5246 36.4865 21.0069 36.5814 20.4861C36.6546 20.0844 36.7213 19.6815 36.7815 19.2774C36.8319 18.9367 36.8717 18.5942 36.9111 18.2519C36.9475 17.935 36.9825 17.6176 37.0086 17.2997C37.0394 16.9244 37.0664 16.5486 37.0828 16.1723C37.1028 15.7196 37.1128 15.2665 37.121 14.8143C37.1318 14.2268 37.101 13.6398 37.0854 13.0527C37.0854 13.0209 37.0824 12.989 37.0802 12.9572C37.0602 12.6776 37.0444 12.3966 37.022 12.1166C36.9943 11.7731 36.9619 11.43 36.9311 11.0867C36.9219 10.9851 36.9091 10.8838 36.8965 10.7824C36.8822 10.6685 36.8671 10.5547 36.8511 10.4409C36.8496 10.4281 36.8444 10.4161 36.8362 10.4062C36.8279 10.3964 36.817 10.3891 36.8047 10.3854C36.7685 10.3734 36.7314 10.363 36.6942 10.3538C36.3099 10.2597 35.9261 10.1627 35.5407 10.0732C35.0556 9.96058 34.5697 9.85154 34.0831 9.74609C33.74 9.6718 33.3953 9.6041 33.0507 9.5362C32.7439 9.47575 32.4365 9.4173 32.1285 9.36085C31.8772 9.31472 31.6253 9.27278 31.3734 9.22984C31.1783 9.19649 30.9831 9.16334 30.7876 9.13198C30.5856 9.09963 30.3836 9.06854 30.1815 9.03872C29.9666 9.00676 29.7516 8.97568 29.5365 8.94545C29.3088 8.9131 29.0811 8.88095 28.853 8.85039C28.6757 8.82669 28.4982 8.80413 28.3206 8.78269C28.1683 8.76452 28.0158 8.74814 27.8634 8.73137L27.387 8.67924C27.2091 8.65927 27.0314 8.6383 26.8531 8.62093C26.6625 8.60215 26.4712 8.58698 26.2801 8.5708L25.4011 8.49691C25.3693 8.49411 25.3375 8.49112 25.3055 8.48872C25.0378 8.46875 24.7703 8.44558 24.5022 8.42881C24.164 8.40884 23.8253 8.39346 23.4869 8.37608C23.4669 8.37508 23.4485 8.37309 23.4295 8.37229C23.2571 8.3643 23.0846 8.35571 22.9121 8.34872C22.765 8.34273 22.618 8.33914 22.4719 8.33374C22.3057 8.32775 22.1396 8.31757 21.9733 8.31537C21.4099 8.30798 20.8463 8.30299 20.2988 8.2978V8.2978Z" fill="#B71C1C"/>
<path d="M22.0041 15.7423C22.0041 16.4829 22.0041 17.2235 22.0041 17.964C22.0041 18.0216 22.0041 18.0791 22.0041 18.1364C22.0025 18.1556 22.0072 18.1748 22.0176 18.1911C22.0279 18.2074 22.0433 18.2199 22.0613 18.2267C22.1025 18.2434 22.1448 18.2586 22.186 18.2758C22.9004 18.5726 23.536 19.0311 24.0424 19.6152C24.5489 20.1992 24.9124 20.8928 25.1042 21.6411C25.2261 22.1247 25.2738 22.624 25.2457 23.1219C25.2094 23.8343 25.031 24.5089 24.6954 25.137C24.0139 26.413 22.9711 27.2509 21.5779 27.6474C21.1774 27.76 20.7632 27.8168 20.347 27.8161C20.0779 27.8161 19.8096 27.8069 19.5439 27.7656C18.9998 27.683 18.4732 27.5112 17.9852 27.2571C17.3655 26.9335 16.8208 26.4837 16.3863 25.9367C15.9518 25.3897 15.6372 24.7578 15.4628 24.0817C15.3899 23.7906 15.3426 23.4937 15.3213 23.1944C15.2987 22.8888 15.3058 22.5818 15.3427 22.2776C15.412 21.6606 15.6008 21.0629 15.8988 20.5179C16.469 19.4776 17.3022 18.7277 18.3982 18.2682C18.5705 18.1957 18.5605 18.2307 18.5605 18.0383C18.5605 17.202 18.5605 16.3656 18.5605 15.5292C18.5605 15.4787 18.5543 15.4281 18.5507 15.3776C18.5511 15.3742 18.5506 15.3708 18.5493 15.3676C18.548 15.3644 18.5459 15.3616 18.5432 15.3595C18.5405 15.3574 18.5373 15.356 18.5339 15.3554C18.5306 15.3549 18.5271 15.3552 18.5239 15.3564C18.4734 15.3615 18.4232 15.3691 18.3736 15.3794C17.2289 15.6687 16.1668 16.2183 15.2703 16.9853C14.1699 17.9235 13.3903 19.0786 12.9317 20.4506C12.799 20.8508 12.7006 21.2616 12.6376 21.6784C12.5719 22.0878 12.5415 22.5021 12.5468 22.9166C12.5868 25.0028 13.3325 26.7992 14.7971 28.2888C15.7375 29.2464 16.864 29.9049 18.1559 30.2773C18.5001 30.3744 18.8503 30.4486 19.2043 30.4992C19.713 30.5747 20.2236 30.5843 20.7352 30.5623C20.9391 30.5535 21.1425 30.529 21.3454 30.5008C21.6111 30.4638 21.8747 30.4132 22.1352 30.3492C23.1882 30.0944 24.174 29.6165 25.0258 28.9479C26.3003 27.9505 27.1822 26.68 27.6715 25.1364C27.8163 24.6735 27.9157 24.1976 27.9682 23.7155C28.0247 23.2135 28.0318 22.7072 27.9894 22.2039C27.9122 21.2664 27.6612 20.3515 27.2491 19.5056C26.7744 18.5249 26.0974 17.6555 25.2625 16.9543C25.2284 16.9256 25.193 16.8978 25.1598 16.868C24.7797 16.5245 24.5844 16.0984 24.5734 15.5841C24.5586 14.8949 25.0094 14.1462 25.8289 13.9219C26.3585 13.7771 26.8547 13.868 27.3051 14.1867C27.3519 14.2199 27.3963 14.2568 27.4404 14.2938C28.9238 15.5397 30.0171 17.0642 30.7203 18.8671C30.9754 19.5284 31.1653 20.2129 31.2876 20.911C31.3498 21.2628 31.3922 21.6175 31.4218 21.974C31.4532 22.3503 31.456 22.7265 31.453 23.1032C31.4473 23.4414 31.4243 23.7792 31.3842 24.1151C31.3131 24.7559 31.185 25.3891 31.0012 26.0071C30.5447 27.5627 29.7497 28.9985 28.6731 30.212C27.3564 31.7043 25.7546 32.774 23.8677 33.4214C23.3478 33.5984 22.8153 33.7358 22.2746 33.8326C21.9411 33.8925 21.6055 33.9412 21.2682 33.9688C20.7328 34.0123 20.1962 34.0341 19.6585 33.9933C19.4354 33.9764 19.2119 33.963 18.9897 33.9376C18.793 33.9152 18.5961 33.8897 18.4014 33.8547C18.0307 33.788 17.6629 33.7077 17.2994 33.6071C15.8902 33.2206 14.5725 32.5573 13.4233 31.6561C11.7467 30.3452 10.5355 28.6928 9.79004 26.6989C9.55018 26.0525 9.37264 25.3847 9.25982 24.7046C9.15092 24.0495 9.10004 23.386 9.10776 22.7219C9.11116 22.3824 9.12777 22.0451 9.16278 21.7088C9.30771 20.302 9.72104 18.9359 10.3805 17.6843C11.6004 15.3681 13.5926 13.5501 16.0128 12.5443C16.6739 12.2712 17.3597 12.0617 18.0607 11.9186C18.3798 11.8529 18.7023 11.8042 19.0261 11.7671C19.4267 11.7239 19.8292 11.7008 20.2322 11.698C20.5173 11.694 20.7924 11.7473 21.0475 11.8777C21.5307 12.1261 21.836 12.5168 21.9617 13.0442C21.9925 13.1814 22.007 13.3218 22.0049 13.4624C22.0032 14.2226 22.0029 14.9826 22.0041 15.7423ZM20.2894 21.3296C19.4891 21.3112 18.7622 21.9686 18.7502 22.8378C18.7392 23.6338 19.3704 24.3769 20.2744 24.3823C20.4765 24.3842 20.6769 24.3461 20.8641 24.27C21.0512 24.1939 21.2213 24.0814 21.3646 23.9391C21.5078 23.7968 21.6212 23.6275 21.6983 23.441C21.7753 23.2545 21.8145 23.0546 21.8134 22.8529C21.81 21.951 21.0609 21.3172 20.2894 21.3296Z" fill="#B71C1C"/>
</g>
<path d="M50.2952 34C49.0952 31.528 47.8592 28.696 46.5872 25.504C45.3392 22.288 44.1992 18.844 43.1672 15.172H47.8112C48.0752 16.228 48.3752 17.368 48.7112 18.592C49.0712 19.792 49.4432 21.004 49.8272 22.228C50.2352 23.428 50.6432 24.604 51.0512 25.756C51.4832 26.884 51.8792 27.904 52.2392 28.816C52.5992 27.904 52.9832 26.884 53.3912 25.756C53.7992 24.604 54.1952 23.428 54.5792 22.228C54.9872 21.004 55.3712 19.792 55.7312 18.592C56.0912 17.368 56.4032 16.228 56.6672 15.172H61.1672C60.1352 18.844 58.9832 22.288 57.7112 25.504C56.4632 28.696 55.2392 31.528 54.0392 34H50.2952ZM62.9546 24.676C62.9546 23.02 63.1946 21.568 63.6746 20.32C64.1786 19.072 64.8386 18.04 65.6546 17.224C66.4706 16.384 67.4066 15.76 68.4626 15.352C69.5186 14.92 70.5986 14.704 71.7026 14.704C74.2946 14.704 76.3106 15.508 77.7506 17.116C79.2146 18.724 79.9466 21.124 79.9466 24.316C79.9466 24.556 79.9346 24.832 79.9106 25.144C79.9106 25.432 79.8986 25.696 79.8746 25.936H67.4546C67.5746 27.448 68.1026 28.624 69.0386 29.464C69.9986 30.28 71.3786 30.688 73.1786 30.688C74.2346 30.688 75.1946 30.592 76.0586 30.4C76.9466 30.208 77.6426 30.004 78.1466 29.788L78.7226 33.352C78.4826 33.472 78.1466 33.604 77.7146 33.748C77.3066 33.868 76.8266 33.976 76.2746 34.072C75.7466 34.192 75.1706 34.288 74.5466 34.36C73.9226 34.432 73.2866 34.468 72.6386 34.468C70.9826 34.468 69.5426 34.228 68.3186 33.748C67.0946 33.244 66.0866 32.56 65.2946 31.696C64.5026 30.808 63.9146 29.776 63.5306 28.6C63.1466 27.4 62.9546 26.092 62.9546 24.676ZM75.5906 22.732C75.5906 22.132 75.5066 21.568 75.3386 21.04C75.1706 20.488 74.9186 20.02 74.5826 19.636C74.2706 19.228 73.8746 18.916 73.3946 18.7C72.9386 18.46 72.3866 18.34 71.7386 18.34C71.0666 18.34 70.4786 18.472 69.9746 18.736C69.4706 18.976 69.0386 19.3 68.6786 19.708C68.3426 20.116 68.0786 20.584 67.8866 21.112C67.6946 21.64 67.5626 22.18 67.4906 22.732H75.5906ZM95.293 19.096C94.933 18.976 94.429 18.856 93.781 18.736C93.157 18.592 92.425 18.52 91.585 18.52C91.105 18.52 90.589 18.568 90.037 18.664C89.509 18.76 89.137 18.844 88.921 18.916V34H84.565V16.072C85.405 15.76 86.449 15.472 87.697 15.208C88.969 14.92 90.373 14.776 91.909 14.776C92.197 14.776 92.533 14.8 92.917 14.848C93.301 14.872 93.685 14.92 94.069 14.992C94.453 15.04 94.825 15.112 95.185 15.208C95.545 15.28 95.833 15.352 96.049 15.424L95.293 19.096ZM106.357 8.8C109.981 8.8 112.753 9.46 114.673 10.78C116.617 12.1 117.589 14.164 117.589 16.972C117.589 18.436 117.325 19.696 116.797 20.752C116.293 21.784 115.549 22.636 114.565 23.308C113.581 23.956 112.381 24.436 110.965 24.748C109.549 25.06 107.929 25.216 106.105 25.216H103.837V34H99.3005V9.412C100.357 9.172 101.521 9.016 102.793 8.944C104.089 8.848 105.277 8.8 106.357 8.8ZM106.681 12.724C105.529 12.724 104.581 12.76 103.837 12.832V21.328H106.033C108.217 21.328 109.897 21.028 111.073 20.428C112.249 19.804 112.837 18.64 112.837 16.936C112.837 16.12 112.681 15.436 112.369 14.884C112.057 14.332 111.625 13.9 111.073 13.588C110.521 13.276 109.861 13.06 109.093 12.94C108.349 12.796 107.545 12.724 106.681 12.724ZM137.909 24.568C137.909 26.056 137.693 27.412 137.261 28.636C136.829 29.86 136.217 30.904 135.425 31.768C134.633 32.632 133.673 33.304 132.545 33.784C131.441 34.264 130.217 34.504 128.873 34.504C127.529 34.504 126.305 34.264 125.201 33.784C124.097 33.304 123.149 32.632 122.357 31.768C121.565 30.904 120.941 29.86 120.485 28.636C120.053 27.412 119.837 26.056 119.837 24.568C119.837 23.08 120.053 21.736 120.485 20.536C120.941 19.312 121.565 18.268 122.357 17.404C123.173 16.54 124.133 15.88 125.237 15.424C126.341 14.944 127.553 14.704 128.873 14.704C130.193 14.704 131.405 14.944 132.509 15.424C133.637 15.88 134.597 16.54 135.389 17.404C136.181 18.268 136.793 19.312 137.225 20.536C137.681 21.736 137.909 23.08 137.909 24.568ZM133.445 24.568C133.445 22.696 133.037 21.22 132.221 20.14C131.429 19.036 130.313 18.484 128.873 18.484C127.433 18.484 126.305 19.036 125.489 20.14C124.697 21.22 124.301 22.696 124.301 24.568C124.301 26.464 124.697 27.964 125.489 29.068C126.305 30.172 127.433 30.724 128.873 30.724C130.313 30.724 131.429 30.172 132.221 29.068C133.037 27.964 133.445 26.464 133.445 24.568ZM153.242 22.156C152.69 24.268 152.09 26.332 151.442 28.348C150.818 30.34 150.194 32.224 149.57 34H146.006C145.526 32.896 145.022 31.636 144.494 30.22C143.966 28.804 143.438 27.292 142.91 25.684C142.382 24.076 141.854 22.384 141.326 20.608C140.798 18.832 140.282 17.02 139.778 15.172H144.386C144.602 16.18 144.854 17.272 145.142 18.448C145.43 19.6 145.73 20.788 146.042 22.012C146.354 23.212 146.678 24.388 147.014 25.54C147.35 26.692 147.686 27.748 148.022 28.708C148.382 27.604 148.73 26.464 149.066 25.288C149.426 24.112 149.762 22.936 150.074 21.76C150.386 20.584 150.674 19.444 150.938 18.34C151.226 17.212 151.478 16.156 151.694 15.172H155.042C155.258 16.156 155.498 17.212 155.762 18.34C156.026 19.444 156.302 20.584 156.59 21.76C156.902 22.936 157.226 24.112 157.562 25.288C157.922 26.464 158.282 27.604 158.642 28.708C158.954 27.748 159.278 26.692 159.614 25.54C159.95 24.388 160.274 23.212 160.586 22.012C160.922 20.788 161.234 19.6 161.522 18.448C161.81 17.272 162.062 16.18 162.278 15.172H166.778C166.274 17.02 165.758 18.832 165.23 20.608C164.702 22.384 164.174 24.076 163.646 25.684C163.118 27.292 162.59 28.804 162.062 30.22C161.534 31.636 161.018 32.896 160.514 34H156.986C156.362 32.224 155.714 30.34 155.042 28.348C154.394 26.332 153.794 24.268 153.242 22.156ZM169.056 24.676C169.056 23.02 169.296 21.568 169.776 20.32C170.28 19.072 170.94 18.04 171.756 17.224C172.572 16.384 173.508 15.76 174.564 15.352C175.62 14.92 176.7 14.704 177.804 14.704C180.396 14.704 182.412 15.508 183.852 17.116C185.316 18.724 186.048 21.124 186.048 24.316C186.048 24.556 186.036 24.832 186.012 25.144C186.012 25.432 186 25.696 185.976 25.936H173.556C173.676 27.448 174.204 28.624 175.14 29.464C176.1 30.28 177.48 30.688 179.28 30.688C180.336 30.688 181.296 30.592 182.16 30.4C183.048 30.208 183.744 30.004 184.248 29.788L184.824 33.352C184.584 33.472 184.248 33.604 183.816 33.748C183.408 33.868 182.928 33.976 182.376 34.072C181.848 34.192 181.272 34.288 180.648 34.36C180.024 34.432 179.388 34.468 178.74 34.468C177.084 34.468 175.644 34.228 174.42 33.748C173.196 33.244 172.188 32.56 171.396 31.696C170.604 30.808 170.016 29.776 169.632 28.6C169.248 27.4 169.056 26.092 169.056 24.676ZM181.692 22.732C181.692 22.132 181.608 21.568 181.44 21.04C181.272 20.488 181.02 20.02 180.684 19.636C180.372 19.228 179.976 18.916 179.496 18.7C179.04 18.46 178.488 18.34 177.84 18.34C177.168 18.34 176.58 18.472 176.076 18.736C175.572 18.976 175.14 19.3 174.78 19.708C174.444 20.116 174.18 20.584 173.988 21.112C173.796 21.64 173.664 22.18 173.592 22.732H181.692ZM201.395 19.096C201.035 18.976 200.531 18.856 199.883 18.736C199.259 18.592 198.527 18.52 197.687 18.52C197.207 18.52 196.691 18.568 196.139 18.664C195.611 18.76 195.239 18.844 195.023 18.916V34H190.667V16.072C191.507 15.76 192.551 15.472 193.799 15.208C195.071 14.92 196.475 14.776 198.011 14.776C198.299 14.776 198.635 14.8 199.019 14.848C199.403 14.872 199.787 14.92 200.171 14.992C200.555 15.04 200.927 15.112 201.287 15.208C201.647 15.28 201.935 15.352 202.151 15.424L201.395 19.096Z" fill="white"/>
<defs>
<clipPath id="clip0_465_22855">
<rect width="40.549" height="43.1373" fill="white" transform="translate(0 4.86279)"/>
</clipPath>
</defs>
</svg>
